<svg width="50" height="63" viewBox="0 0 50 63" fill="none" xmlns="http://www.w3.org/2000/svg">
<mask id="path-1-inside-1_1941_3647" fill="white">
<path fill-rule="evenodd" clip-rule="evenodd" d="M31.3844 49.1774C42.0988 46.3557 50 36.6005 50 25C50 11.1929 38.8071 0 25 0C11.1929 0 0 11.1929 0 25C0 36.6005 7.9012 46.3557 18.6156 49.1774L25 63L31.3844 49.1774Z"/>
</mask>
<path fill-rule="evenodd" clip-rule="evenodd" d="M31.3844 49.1774C42.0988 46.3557 50 36.6005 50 25C50 11.1929 38.8071 0 25 0C11.1929 0 0 11.1929 0 25C0 36.6005 7.9012 46.3557 18.6156 49.1774L25 63L31.3844 49.1774Z" fill="white"/>
<path d="M31.3844 49.1774L30.6204 46.2763L29.2535 46.6363L28.6609 47.9195L31.3844 49.1774ZM18.6156 49.1774L21.3391 47.9195L20.7465 46.6363L19.3796 46.2763L18.6156 49.1774ZM25 63L22.2765 64.2579L25 70.1545L27.7235 64.2579L25 63ZM47 25C47 35.2043 40.0499 43.793 30.6204 46.2763L32.1484 52.0785C44.1477 48.9184 53 37.9968 53 25H47ZM25 3C37.1503 3 47 12.8497 47 25H53C53 9.53603 40.464 -3 25 -3V3ZM3 25C3 12.8497 12.8497 3 25 3V-3C9.53603 -3 -3 9.53603 -3 25H3ZM19.3796 46.2763C9.95008 43.793 3 35.2043 3 25H-3C-3 37.9968 5.85231 48.9184 17.8516 52.0785L19.3796 46.2763ZM27.7235 61.7421L21.3391 47.9195L15.8921 50.4353L22.2765 64.2579L27.7235 61.7421ZM28.6609 47.9195L22.2765 61.7421L27.7235 64.2579L34.1079 50.4353L28.6609 47.9195Z" fill="#C2C2C2" mask="url(#path-1-inside-1_1941_3647)"/>
<path d="M24.5 41L22.6875 39.2016C16.25 32.8392 12 28.6431 12 23.4932C12 19.297 15.025 16 18.875 16C21.05 16 23.1375 17.1035 24.5 18.8474C25.8625 17.1035 27.95 16 30.125 16C33.975 16 37 19.297 37 23.4932C37 28.6431 32.75 32.8392 26.3125 39.2153L24.5 41Z" fill="#C2C2C2"/>
</svg>
