<svg fill="#000000" height="800px" width="800px" version="1.1" id="Layer_1" xmlns="http://www.w3.org/2000/svg" xmlns:xlink="http://www.w3.org/1999/xlink" 
	viewBox="0 0 512 512" xml:space="preserve">
<g>
	<g>
		<path d="M471.685,351.476v-15.677c0-31.701-21.561-58.872-52.432-66.075l-146.248-34.126l5.19-6.76
			c5.64-7.346,4.258-17.872-3.088-23.513c-7.347-5.64-17.872-4.258-23.513,3.088l-32.293,42.056
			c-5.64,7.346-4.258,17.872,3.088,23.513c7.342,5.639,17.871,4.259,23.513-3.088l5.029-6.55v23.512h-71.905l-19.883-36.633V73.464
			c0-9.261-7.508-16.769-16.769-16.769c-9.261,0-16.769,7.508-16.769,16.769v131.779c-2.729-0.238-5.547,0.176-8.214,1.354
			l-41.15,18.183c-21.825,9.644-35.928,31.294-35.928,55.154v71.542C17.217,357.044,0,377.869,0,402.653
			c0,29.032,23.619,52.651,52.651,52.651h406.697c29.033,0,52.652-23.619,52.652-52.651
			C512,377.869,494.783,357.044,471.685,351.476z M73.852,279.933c0-10.59,6.259-20.197,15.946-24.478l27.009-11.934
			c3.955,7.286,33.562,61.832,37.506,69.1c2.933,5.404,8.589,8.77,14.737,8.77h98.652c9.261,0,16.769-7.508,16.769-16.769V272.71
			l127.163,29.672c15.612,3.643,26.516,17.385,26.516,33.416v14.204H73.852V279.933z M459.348,421.767H52.651
			c-10.54,0-19.114-8.574-19.114-19.114c0-10.54,8.574-19.115,19.114-19.115c5.266,0,403.424,0,406.697,0
			c10.54,0,19.115,8.575,19.115,19.115S469.887,421.767,459.348,421.767z"/>
	</g>
</g>
</svg>