<?xml version="1.0" encoding="iso-8859-1"?>
<!-- Uploaded to: SVG Repo, www.svgrepo.com, Generator: SVG Repo Mixer Tools -->
<svg height="800px" width="800px" version="1.1" id="Layer_1" xmlns="http://www.w3.org/2000/svg" xmlns:xlink="http://www.w3.org/1999/xlink" 
	 viewBox="0 0 512 512" xml:space="preserve">
<g>
	<g>
		<path d="M426.617,291.498l-145.756-34.011l-10.957-16.441l8.858-11.534c5.615-7.314,4.24-17.794-3.074-23.411
			c-7.313-5.618-17.794-4.241-23.411,3.074l-34.556,45.004c-5.615,7.314-4.24,17.794,3.074,23.411
			c3.032,2.328,6.608,3.455,10.157,3.455c5.011,0,9.966-2.247,13.254-6.528l4.216-5.492l3.404,5.108v20.542h-78.937l-25.121-46.284
			V64.009c0-9.22-7.475-16.696-16.696-16.696s-16.696,7.475-16.696,16.696V223.13l-43.48,19.212
			c-16.872,7.455-27.755,24.162-27.755,42.607v69.266h425.717v-9.485C468.858,319.326,451.357,297.27,426.617,291.498z"/>
	</g>
</g>
<g>
	<g>
		<path d="M473.602,387.891H38.398C17.191,387.891,0,405.082,0,426.288c0,21.207,17.191,38.398,38.398,38.398h435.204
			c21.207,0,38.398-17.191,38.398-38.398C512,405.082,494.809,387.891,473.602,387.891z"/>
	</g>
</g>
</svg>