<svg width="158" height="167" viewBox="0 0 158 167" fill="none" xmlns="http://www.w3.org/2000/svg">
<path d="M90.2897 8.20546C86.8292 6.10862 82.8603 5 78.8141 5C74.7678 5 70.7989 6.10862 67.3384 8.20546L15.6686 39.5223C12.4125 41.4953 9.72015 44.2744 7.85136 47.5913C5.98257 50.9082 5.00051 54.6509 5 58.4581V108.927C5.00051 112.734 5.98257 116.477 7.85136 119.794C9.72015 123.111 12.4125 125.89 15.6686 127.863L67.3384 159.18C70.7989 161.277 74.7678 162.385 78.8141 162.385C82.8603 162.385 86.8292 161.277 90.2897 159.18L141.96 127.863C145.216 125.89 147.908 123.111 149.777 119.794C151.646 116.477 152.628 112.734 152.628 108.927V58.4581C152.628 54.6509 151.646 50.9082 149.777 47.5913C147.908 44.2744 145.216 41.4953 141.96 39.5223L90.2897 8.20546Z" fill="white" stroke="#FF938B" stroke-width="8.85769"/>
<path d="M76.4583 36.5571C69.9782 36.5571 64.6745 41.8609 64.6745 48.341C64.6745 50.9964 65.589 53.4351 67.0865 55.4113H67.0312C60.5511 55.4113 55.2474 60.715 55.2474 67.1951V76.6222C55.2474 82.2923 59.3181 87.063 64.6745 88.1667V109.617C64.6745 113.522 67.84 116.687 71.7448 116.687H76.4583H81.1719C85.0767 116.687 88.2422 113.522 88.2422 109.617V88.1667C93.5985 87.063 97.6693 82.2923 97.6693 76.6222V67.1951C97.6693 60.715 92.3655 55.4113 85.8854 55.4113H85.8302C87.3277 53.4351 88.2422 50.9964 88.2422 48.341C88.2422 41.8609 82.9385 36.5571 76.4583 36.5571ZM76.4583 41.2707C80.3911 41.2707 83.5286 44.4082 83.5286 48.341C83.5286 49.9519 82.953 51.3747 82.203 52.3825C81.4529 53.3902 81.1193 54.3872 81.1166 55.4113C81.1166 58.0145 83.227 60.1248 85.8302 60.1248H85.8854C89.8182 60.1248 92.9557 63.2624 92.9557 67.1951V76.6222C92.9557 79.7222 90.994 82.3045 88.2422 83.2691V69.5519C88.2422 68.2503 87.187 67.1951 85.8854 67.1951C84.5838 67.1951 83.5286 68.2503 83.5286 69.5519V109.617C83.5286 110.919 82.4735 111.974 81.1719 111.974H78.8151V90.7629C78.8151 89.4612 77.7599 88.4061 76.4583 88.4061C75.1567 88.4061 74.1016 89.4612 74.1016 90.7629V111.974H71.7448C70.4432 111.974 69.388 110.919 69.388 109.617V69.5519C69.388 68.2503 68.3329 67.1951 67.0312 67.1951C65.7296 67.1951 64.6745 68.2503 64.6745 69.5519V83.2691C61.9227 82.3045 59.9609 79.7222 59.9609 76.6222V67.1951C59.9609 63.2624 63.0985 60.1248 67.0312 60.1248H67.0865C69.6897 60.1248 71.8 58.0145 71.8 55.4113C71.7974 54.3872 71.4637 53.3902 70.7137 52.3825C69.9637 51.3747 69.388 49.9519 69.388 48.341C69.388 44.4082 72.5256 41.2707 76.4583 41.2707ZM59.9609 94.3993C54.5759 95.2634 49.6894 96.5287 45.5533 98.1462C41.524 99.7219 38.1787 101.609 35.7304 103.872C33.2821 106.136 31.6797 108.913 31.6797 111.974C31.6797 115.034 33.2821 117.811 35.7304 120.075C38.1787 122.339 41.524 124.226 45.5533 125.801C53.612 128.953 64.4689 130.828 76.4583 130.828C88.4478 130.828 99.3047 128.953 107.363 125.801C111.393 124.226 114.738 122.339 117.186 120.075C119.635 117.811 121.237 115.034 121.237 111.974C121.237 108.913 119.635 106.136 117.186 103.872C114.738 101.609 111.393 99.7219 107.363 98.1462C103.227 96.5287 98.3408 95.2634 92.9557 94.3993V98.8735C97.8004 99.6924 102.161 100.844 105.761 102.252C109.437 103.689 112.334 105.393 114.194 107.113C116.055 108.833 116.827 110.437 116.827 111.974C116.827 113.511 116.055 115.114 114.194 116.835C112.334 118.555 109.437 120.258 105.761 121.695C98.4113 124.57 87.9819 126.418 76.4583 126.418C64.9348 126.418 54.5054 124.57 47.1552 121.695C43.4801 120.258 40.5828 118.555 38.7224 116.835C36.862 115.114 36.0894 113.511 36.0894 111.974C36.0894 110.437 36.862 108.833 38.7224 107.113C40.5828 105.393 43.4801 103.689 47.1552 102.252C50.7555 100.844 55.1163 99.6924 59.9609 98.8735V94.3993Z" fill="#F95656"/>
</svg>
