<svg width="60" height="60" viewBox="0 0 60 60" fill="none" xmlns="http://www.w3.org/2000/svg">
<path d="M27.4108 53.9092L27.4074 53.9058C19.6356 46.2247 13.3766 40.0328 9.03082 34.2419C4.7184 28.4955 2.5 23.41 2.5 17.9837C2.5 9.08653 8.83899 2.5 16.5 2.5C20.8791 2.5 25.188 4.73553 28.03 8.37297L30 10.8944L31.97 8.37297C34.812 4.73553 39.1209 2.5 43.5 2.5C51.161 2.5 57.5 9.08653 57.5 17.9837C57.5 23.4101 55.2816 28.4957 50.9687 34.2467C46.6228 40.0417 40.3644 46.241 32.5933 53.9379C32.5924 53.9387 32.5916 53.9396 32.5907 53.9404L30.0067 56.4849L27.4108 53.9092Z" stroke="black" stroke-width="5"/>
<path d="M29.5825 44.2H29.6025M22 23.8544C23.0833 21.0296 26.069 19 29.5825 19C34.0104 19 37.6 22.2235 37.6 26.2C37.6 29.1817 35.5818 31.74 32.7053 32.8334C31.2205 33.3978 30.478 33.6801 30.2183 33.8981C29.909 34.1576 29.8503 34.2372 29.7048 34.5941C29.5825 34.8938 29.5825 35.3559 29.5825 36.28V38.8" stroke="black" stroke-width="5" stroke-linecap="round" stroke-linejoin="round"/>
</svg>
