<?xml version="1.0" encoding="iso-8859-1"?>
<!-- Uploaded to: SVG Repo, www.svgrepo.com, Generator: SVG Repo Mixer Tools -->
<!DOCTYPE svg PUBLIC "-//W3C//DTD SVG 1.1//EN" "http://www.w3.org/Graphics/SVG/1.1/DTD/svg11.dtd">
<svg fill="#000000" version="1.1" id="Capa_1" xmlns="http://www.w3.org/2000/svg" xmlns:xlink="http://www.w3.org/1999/xlink" 
	 width="800px" height="800px" viewBox="0 0 29.021 29.021"
	 xml:space="preserve">
<g>
	<g>
		<path d="M28.963,8.743c-0.547-5.304-4.439-7.193-7.899-7.193c-2.334,0-4.724,0.797-6.553,2.162
			C12.682,2.347,10.294,1.55,7.96,1.55c-3.459,0-7.352,1.89-7.902,7.192c-1.08,10.41,13.371,18.158,13.986,18.484l0.466,0.245
			l0.466-0.245C15.592,26.899,30.042,19.151,28.963,8.743z M14.51,25.194C12.097,23.807,1.205,17.067,2.047,8.949
			C2.552,4.075,6.35,3.55,7.96,3.55c2.118,0,4.372,0.842,5.883,2.197l0.668,0.6l0.668-0.6c1.512-1.354,3.766-2.197,5.885-2.197
			c1.609,0,5.407,0.525,5.91,5.399C27.814,17.056,16.921,23.806,14.51,25.194z"/>
		<path d="M14,18.274c-1.001,0-1.712,0.731-1.712,1.752c0,1,0.692,1.75,1.712,1.75c1.039,0,1.732-0.75,1.732-1.75
			C15.713,19.007,15.039,18.274,14,18.274z"/>
		<path d="M14.269,8.385c-1.366,0-2.521,0.385-3.213,0.789l0.654,2.098c0.5-0.347,1.27-0.577,1.904-0.577
			c0.962,0.038,1.405,0.48,1.405,1.154c0,0.654-0.5,1.27-1.116,2.001c-0.865,1.038-1.192,2.039-1.135,3.02l0.02,0.5h2.559v-0.346
			c-0.02-0.865,0.269-1.617,0.981-2.404c0.73-0.808,1.635-1.771,1.635-3.232C17.964,9.79,16.809,8.385,14.269,8.385z"/>
	</g>
</g>
</svg>