<svg width="60" height="58" viewBox="0 0 60 58" fill="none" xmlns="http://www.w3.org/2000/svg">
<g filter="url(#filter0_d_1716_3609)">
<rect x="4" width="51.2739" height="50" rx="25" fill="white"/>
</g>
<path d="M27 35L25.695 33.7052C21.06 29.1243 18 26.103 18 22.3951C18 19.3738 20.178 17 22.95 17C24.516 17 26.019 17.7946 27 19.0501C27.981 17.7946 29.484 17 31.05 17C33.822 17 36 19.3738 36 22.3951C36 26.103 32.94 29.1243 28.305 33.715L27 35Z" fill="#C2C2C2"/>
<path d="M35 35L33.695 33.7052C29.06 29.1243 26 26.103 26 22.3951C26 19.3738 28.178 17 30.95 17C32.516 17 34.019 17.7946 35 19.0501C35.981 17.7946 37.484 17 39.05 17C41.822 17 44 19.3738 44 22.3951C44 26.103 40.94 29.1243 36.305 33.715L35 35Z" fill="#F95656"/>
<defs>
<filter id="filter0_d_1716_3609" x="0" y="0" width="59.2734" height="58" filterUnits="userSpaceOnUse" color-interpolation-filters="sRGB">
<feFlood flood-opacity="0" result="BackgroundImageFix"/>
<feColorMatrix in="SourceAlpha" type="matrix" values="0 0 0 0 0 0 0 0 0 0 0 0 0 0 0 0 0 0 127 0" result="hardAlpha"/>
<feOffset dy="4"/>
<feGaussianBlur stdDeviation="2"/>
<feComposite in2="hardAlpha" operator="out"/>
<feColorMatrix type="matrix" values="0 0 0 0 0 0 0 0 0 0 0 0 0 0 0 0 0 0 0.25 0"/>
<feBlend mode="normal" in2="BackgroundImageFix" result="effect1_dropShadow_1716_3609"/>
<feBlend mode="normal" in="SourceGraphic" in2="effect1_dropShadow_1716_3609" result="shape"/>
</filter>
</defs>
</svg>
