<svg width="60" height="58" viewBox="0 0 60 58" fill="none" xmlns="http://www.w3.org/2000/svg">
<g filter="url(#filter0_d_169_4284)">
<rect x="4" width="51.2739" height="50" rx="25" fill="white"/>
<path d="M42.4643 23.6364C41.8371 17.95 37.3234 13.4364 31.6371 12.8091V10H28.9098V12.8091C23.2234 13.4364 18.7098 17.95 18.0825 23.6364H15.2734V26.3636H18.0825C18.7098 32.05 23.2234 36.5636 28.9098 37.1909V40H31.6371V37.1909C37.3234 36.5636 41.8371 32.05 42.4643 26.3636H45.2734V23.6364H42.4643ZM30.2734 34.5455C24.9962 34.5455 20.728 30.2773 20.728 25C20.728 19.7227 24.9962 15.4545 30.2734 15.4545C35.5507 15.4545 39.8189 19.7227 39.8189 25C39.8189 30.2773 35.5507 34.5455 30.2734 34.5455Z" fill="#C2C2C2"/>
</g>
<defs>
<filter id="filter0_d_169_4284" x="0" y="0" width="59.2734" height="58" filterUnits="userSpaceOnUse" color-interpolation-filters="sRGB">
<feFlood flood-opacity="0" result="BackgroundImageFix"/>
<feColorMatrix in="SourceAlpha" type="matrix" values="0 0 0 0 0 0 0 0 0 0 0 0 0 0 0 0 0 0 127 0" result="hardAlpha"/>
<feOffset dy="4"/>
<feGaussianBlur stdDeviation="2"/>
<feComposite in2="hardAlpha" operator="out"/>
<feColorMatrix type="matrix" values="0 0 0 0 0 0 0 0 0 0 0 0 0 0 0 0 0 0 0.25 0"/>
<feBlend mode="normal" in2="BackgroundImageFix" result="effect1_dropShadow_169_4284"/>
<feBlend mode="normal" in="SourceGraphic" in2="effect1_dropShadow_169_4284" result="shape"/>
</filter>
</defs>
</svg>
